<svg xmlns="http://www.w3.org/2000/svg" viewBox="0 0 1600 900" preserveAspectRatio="xMidYMid slice" width="1600" height="900">
<defs>
<radialGradient id="atmo" cx="50%" cy="100%" r="70%">
<stop offset="0%" stop-color="#bcd8ff" stop-opacity="0.95"/>
<stop offset="9%" stop-color="#5aa0ff" stop-opacity="0.7"/>
<stop offset="22%" stop-color="#2b6fe6" stop-opacity="0.32"/>
<stop offset="45%" stop-color="#0c3284" stop-opacity="0.12"/>
<stop offset="75%" stop-color="#020410" stop-opacity="0"/>
</radialGradient>
<radialGradient id="nebula" cx="50%" cy="0%" r="80%">
<stop offset="0%" stop-color="#0a1f4d" stop-opacity="0.35"/>
<stop offset="55%" stop-color="#040c22" stop-opacity="0.1"/>
<stop offset="100%" stop-color="#020410" stop-opacity="0"/>
</radialGradient>
<filter id="glow" x="-20%" y="-20%" width="140%" height="140%"><feGaussianBlur stdDeviation="6"/></filter>
<filter id="softglow" x="-50%" y="-50%" width="200%" height="200%"><feGaussianBlur stdDeviation="26"/></filter>
</defs>
<rect width="1600" height="900" fill="#020410"/>
<rect width="1600" height="900" fill="url(#nebula)"/>
<circle cx="955.3" cy="50.6" r="1.05" fill="#dbe6ff" opacity="0.84"/><circle cx="1075.5" cy="158.2" r="1.44" fill="#dbe6ff" opacity="0.79"/><circle cx="119.3" cy="562.0" r="0.65" fill="#dbe6ff" opacity="0.33"/><circle cx="1588.4" cy="2.0" r="0.86" fill="#dbe6ff" opacity="0.22"/><circle cx="115.2" cy="256.4" r="1.51" fill="#dbe6ff" opacity="0.73"/><circle cx="1186.0" cy="2.3" r="1.14" fill="#dbe6ff" opacity="0.52"/><circle cx="326.2" cy="449.9" r="0.48" fill="#dbe6ff" opacity="0.72"/><circle cx="234.2" cy="0.4" r="1.26" fill="#dbe6ff" opacity="0.68"/><circle cx="1381.1" cy="377.7" r="1.40" fill="#dbe6ff" opacity="0.68"/><circle cx="57.9" cy="64.9" r="0.58" fill="#dbe6ff" opacity="0.63"/><circle cx="612.9" cy="50.7" r="1.35" fill="#dbe6ff" opacity="0.40"/><circle cx="1399.1" cy="176.0" r="0.64" fill="#dbe6ff" opacity="0.50"/><circle cx="918.5" cy="97.4" r="0.76" fill="#dbe6ff" opacity="0.75"/><circle cx="961.3" cy="70.5" r="1.26" fill="#dbe6ff" opacity="0.58"/><circle cx="639.1" cy="186.0" r="0.68" fill="#dbe6ff" opacity="0.26"/><circle cx="946.1" cy="155.8" r="0.95" fill="#dbe6ff" opacity="0.39"/><circle cx="723.0" cy="3.6" r="1.33" fill="#dbe6ff" opacity="0.33"/><circle cx="193.0" cy="408.4" r="1.12" fill="#dbe6ff" opacity="0.60"/><circle cx="1491.5" cy="34.9" r="0.98" fill="#dbe6ff" opacity="0.46"/><circle cx="1010.5" cy="261.4" r="0.68" fill="#dbe6ff" opacity="0.32"/><circle cx="987.7" cy="0.0" r="0.74" fill="#dbe6ff" opacity="0.71"/><circle cx="1226.1" cy="105.5" r="0.84" fill="#dbe6ff" opacity="0.53"/><circle cx="406.3" cy="48.3" r="1.41" fill="#dbe6ff" opacity="0.38"/><circle cx="951.6" cy="2.0" r="1.45" fill="#dbe6ff" opacity="0.65"/><circle cx="717.6" cy="17.1" r="1.39" fill="#dbe6ff" opacity="0.39"/><circle cx="354.3" cy="117.0" r="1.33" fill="#dbe6ff" opacity="0.44"/><circle cx="1.7" cy="100.2" r="0.53" fill="#dbe6ff" opacity="0.84"/><circle cx="444.3" cy="187.5" r="1.11" fill="#dbe6ff" opacity="0.78"/><circle cx="1153.7" cy="536.5" r="0.71" fill="#dbe6ff" opacity="0.35"/><circle cx="792.7" cy="87.8" r="1.34" fill="#dbe6ff" opacity="0.53"/><circle cx="1510.4" cy="342.7" r="1.00" fill="#dbe6ff" opacity="0.79"/><circle cx="623.3" cy="192.9" r="1.47" fill="#dbe6ff" opacity="0.50"/><circle cx="540.2" cy="312.8" r="1.48" fill="#dbe6ff" opacity="0.77"/><circle cx="288.6" cy="34.2" r="0.81" fill="#dbe6ff" opacity="0.23"/><circle cx="218.0" cy="247.3" r="1.38" fill="#dbe6ff" opacity="0.35"/><circle cx="883.9" cy="46.0" r="0.62" fill="#dbe6ff" opacity="0.59"/><circle cx="1028.5" cy="475.4" r="1.49" fill="#dbe6ff" opacity="0.36"/><circle cx="1089.9" cy="8.0" r="1.39" fill="#dbe6ff" opacity="0.42"/><circle cx="499.0" cy="271.6" r="0.53" fill="#dbe6ff" opacity="0.75"/><circle cx="568.3" cy="42.9" r="1.13" fill="#dbe6ff" opacity="0.51"/><circle cx="889.5" cy="490.7" r="0.94" fill="#dbe6ff" opacity="0.84"/><circle cx="118.9" cy="193.1" r="1.18" fill="#dbe6ff" opacity="0.31"/><circle cx="972.6" cy="332.2" r="1.10" fill="#dbe6ff" opacity="0.23"/><circle cx="1432.8" cy="127.9" r="0.92" fill="#dbe6ff" opacity="0.74"/><circle cx="1209.3" cy="14.0" r="1.48" fill="#dbe6ff" opacity="0.41"/><circle cx="155.7" cy="27.1" r="0.48" fill="#dbe6ff" opacity="0.70"/><circle cx="1225.5" cy="188.9" r="0.42" fill="#dbe6ff" opacity="0.46"/><circle cx="1304.1" cy="111.4" r="0.62" fill="#dbe6ff" opacity="0.34"/><circle cx="256.4" cy="202.4" r="1.10" fill="#dbe6ff" opacity="0.40"/><circle cx="1052.7" cy="8.6" r="1.43" fill="#dbe6ff" opacity="0.27"/><circle cx="1584.2" cy="11.1" r="0.71" fill="#dbe6ff" opacity="0.26"/><circle cx="1104.8" cy="108.1" r="1.21" fill="#dbe6ff" opacity="0.22"/><circle cx="97.8" cy="0.0" r="0.54" fill="#dbe6ff" opacity="0.52"/><circle cx="98.5" cy="549.9" r="0.78" fill="#dbe6ff" opacity="0.30"/><circle cx="340.1" cy="59.1" r="0.96" fill="#dbe6ff" opacity="0.53"/><circle cx="1568.4" cy="284.8" r="1.12" fill="#dbe6ff" opacity="0.30"/><circle cx="452.7" cy="355.6" r="1.30" fill="#dbe6ff" opacity="0.52"/><circle cx="139.2" cy="297.7" r="1.29" fill="#dbe6ff" opacity="0.24"/><circle cx="180.9" cy="57.4" r="0.66" fill="#dbe6ff" opacity="0.37"/><circle cx="1019.6" cy="175.2" r="1.43" fill="#dbe6ff" opacity="0.55"/><circle cx="1376.4" cy="145.5" r="0.56" fill="#dbe6ff" opacity="0.62"/><circle cx="820.4" cy="158.2" r="1.33" fill="#dbe6ff" opacity="0.84"/><circle cx="992.4" cy="268.2" r="1.46" fill="#dbe6ff" opacity="0.41"/><circle cx="1467.6" cy="140.8" r="1.45" fill="#dbe6ff" opacity="0.82"/><circle cx="1496.0" cy="423.7" r="1.06" fill="#dbe6ff" opacity="0.22"/><circle cx="1127.4" cy="3.9" r="1.13" fill="#dbe6ff" opacity="0.22"/><circle cx="1527.8" cy="0.1" r="1.42" fill="#dbe6ff" opacity="0.75"/><circle cx="70.3" cy="108.5" r="0.53" fill="#dbe6ff" opacity="0.54"/><circle cx="81.4" cy="66.1" r="0.65" fill="#dbe6ff" opacity="0.48"/><circle cx="1252.4" cy="342.5" r="1.51" fill="#dbe6ff" opacity="0.44"/><circle cx="1313.1" cy="166.0" r="1.01" fill="#dbe6ff" opacity="0.28"/><circle cx="918.3" cy="156.8" r="0.51" fill="#dbe6ff" opacity="0.38"/><circle cx="16.0" cy="16.1" r="0.78" fill="#dbe6ff" opacity="0.40"/><circle cx="849.9" cy="548.5" r="1.04" fill="#dbe6ff" opacity="0.58"/><circle cx="1453.6" cy="490.6" r="1.52" fill="#dbe6ff" opacity="0.56"/><circle cx="1187.6" cy="4.3" r="0.58" fill="#dbe6ff" opacity="0.51"/><circle cx="1490.2" cy="238.8" r="0.42" fill="#dbe6ff" opacity="0.32"/><circle cx="1201.8" cy="348.0" r="1.27" fill="#dbe6ff" opacity="0.71"/><circle cx="654.0" cy="0.9" r="0.66" fill="#dbe6ff" opacity="0.64"/><circle cx="1103.8" cy="113.0" r="1.14" fill="#dbe6ff" opacity="0.35"/><circle cx="466.4" cy="0.1" r="1.45" fill="#dbe6ff" opacity="0.81"/><circle cx="157.6" cy="87.4" r="0.80" fill="#dbe6ff" opacity="0.70"/><circle cx="1411.2" cy="7.3" r="0.65" fill="#dbe6ff" opacity="0.27"/><circle cx="1082.9" cy="56.7" r="1.01" fill="#dbe6ff" opacity="0.84"/><circle cx="395.8" cy="262.5" r="1.58" fill="#dbe6ff" opacity="0.83"/><circle cx="1036.9" cy="265.4" r="1.10" fill="#dbe6ff" opacity="0.74"/><circle cx="1025.4" cy="169.2" r="1.35" fill="#dbe6ff" opacity="0.53"/><circle cx="170.7" cy="44.7" r="1.60" fill="#dbe6ff" opacity="0.76"/><circle cx="1595.9" cy="243.9" r="0.58" fill="#dbe6ff" opacity="0.63"/><circle cx="433.2" cy="558.6" r="1.16" fill="#dbe6ff" opacity="0.33"/><circle cx="1519.9" cy="151.3" r="0.61" fill="#dbe6ff" opacity="0.69"/><circle cx="65.0" cy="1.0" r="0.83" fill="#dbe6ff" opacity="0.65"/><circle cx="1296.2" cy="9.0" r="1.09" fill="#dbe6ff" opacity="0.59"/><circle cx="877.6" cy="14.0" r="0.99" fill="#dbe6ff" opacity="0.44"/><circle cx="247.0" cy="249.3" r="0.76" fill="#dbe6ff" opacity="0.29"/><circle cx="172.6" cy="401.9" r="1.01" fill="#dbe6ff" opacity="0.75"/><circle cx="1400.9" cy="502.6" r="0.63" fill="#dbe6ff" opacity="0.82"/><circle cx="306.4" cy="118.8" r="0.76" fill="#dbe6ff" opacity="0.59"/><circle cx="157.0" cy="4.3" r="0.93" fill="#dbe6ff" opacity="0.31"/><circle cx="1529.8" cy="244.5" r="1.22" fill="#dbe6ff" opacity="0.24"/><circle cx="961.3" cy="119.1" r="0.63" fill="#dbe6ff" opacity="0.28"/><circle cx="1024.9" cy="2.4" r="1.13" fill="#dbe6ff" opacity="0.76"/><circle cx="1053.6" cy="179.0" r="0.56" fill="#dbe6ff" opacity="0.35"/><circle cx="165.5" cy="6.4" r="0.40" fill="#dbe6ff" opacity="0.22"/><circle cx="906.4" cy="6.8" r="0.95" fill="#dbe6ff" opacity="0.22"/><circle cx="1449.9" cy="13.3" r="0.80" fill="#dbe6ff" opacity="0.27"/><circle cx="1593.4" cy="322.1" r="0.41" fill="#dbe6ff" opacity="0.49"/><circle cx="1335.1" cy="19.7" r="0.64" fill="#dbe6ff" opacity="0.80"/><circle cx="1549.6" cy="130.4" r="1.31" fill="#dbe6ff" opacity="0.60"/><circle cx="1330.6" cy="251.9" r="1.21" fill="#dbe6ff" opacity="0.43"/><circle cx="1267.3" cy="12.2" r="0.84" fill="#dbe6ff" opacity="0.84"/><circle cx="1488.7" cy="47.1" r="0.60" fill="#dbe6ff" opacity="0.41"/><circle cx="905.6" cy="275.3" r="0.86" fill="#dbe6ff" opacity="0.64"/><circle cx="1431.9" cy="207.2" r="1.45" fill="#dbe6ff" opacity="0.64"/><circle cx="754.2" cy="10.2" r="1.49" fill="#dbe6ff" opacity="0.46"/><circle cx="510.2" cy="9.2" r="0.74" fill="#dbe6ff" opacity="0.69"/><circle cx="1444.4" cy="198.5" r="1.18" fill="#dbe6ff" opacity="0.71"/><circle cx="418.9" cy="443.0" r="1.06" fill="#dbe6ff" opacity="0.47"/><circle cx="1.1" cy="34.5" r="1.01" fill="#dbe6ff" opacity="0.44"/><circle cx="1084.0" cy="505.7" r="0.76" fill="#dbe6ff" opacity="0.21"/><circle cx="632.9" cy="0.1" r="0.75" fill="#dbe6ff" opacity="0.24"/><circle cx="236.4" cy="307.6" r="0.59" fill="#dbe6ff" opacity="0.30"/><circle cx="959.5" cy="15.4" r="1.15" fill="#dbe6ff" opacity="0.84"/><circle cx="1467.6" cy="303.8" r="0.84" fill="#dbe6ff" opacity="0.60"/><circle cx="1110.6" cy="246.5" r="1.23" fill="#dbe6ff" opacity="0.67"/><circle cx="41.0" cy="1.3" r="0.43" fill="#dbe6ff" opacity="0.45"/><circle cx="416.7" cy="508.9" r="0.74" fill="#dbe6ff" opacity="0.80"/><circle cx="1428.5" cy="77.4" r="1.19" fill="#dbe6ff" opacity="0.32"/><circle cx="518.2" cy="470.8" r="1.27" fill="#dbe6ff" opacity="0.56"/><circle cx="998.4" cy="151.9" r="0.86" fill="#dbe6ff" opacity="0.39"/><circle cx="561.4" cy="558.3" r="0.45" fill="#dbe6ff" opacity="0.47"/><circle cx="1224.0" cy="0.5" r="1.51" fill="#dbe6ff" opacity="0.68"/><circle cx="1170.9" cy="91.9" r="0.49" fill="#dbe6ff" opacity="0.60"/><circle cx="717.5" cy="8.9" r="0.98" fill="#dbe6ff" opacity="0.30"/><circle cx="423.1" cy="396.5" r="1.51" fill="#dbe6ff" opacity="0.39"/><circle cx="260.6" cy="27.5" r="0.48" fill="#dbe6ff" opacity="0.66"/><circle cx="941.0" cy="256.2" r="0.80" fill="#dbe6ff" opacity="0.56"/><circle cx="56.6" cy="132.3" r="1.07" fill="#dbe6ff" opacity="0.43"/><circle cx="10.7" cy="303.4" r="0.88" fill="#dbe6ff" opacity="0.30"/><circle cx="609.4" cy="141.0" r="0.79" fill="#dbe6ff" opacity="0.31"/><circle cx="537.2" cy="77.7" r="1.28" fill="#dbe6ff" opacity="0.77"/><circle cx="1066.1" cy="115.7" r="0.77" fill="#dbe6ff" opacity="0.81"/><circle cx="182.6" cy="14.6" r="1.32" fill="#dbe6ff" opacity="0.56"/><circle cx="1099.0" cy="0.0" r="0.68" fill="#dbe6ff" opacity="0.64"/><circle cx="492.4" cy="340.8" r="1.13" fill="#dbe6ff" opacity="0.73"/><circle cx="395.7" cy="147.4" r="0.80" fill="#dbe6ff" opacity="0.80"/><circle cx="1294.9" cy="259.4" r="1.52" fill="#dbe6ff" opacity="0.44"/><circle cx="997.7" cy="106.6" r="0.47" fill="#dbe6ff" opacity="0.30"/><circle cx="56.5" cy="94.4" r="1.29" fill="#dbe6ff" opacity="0.63"/><circle cx="495.6" cy="486.8" r="1.34" fill="#dbe6ff" opacity="0.72"/><circle cx="410.7" cy="82.4" r="1.12" fill="#dbe6ff" opacity="0.61"/><circle cx="1.1" cy="325.0" r="0.90" fill="#dbe6ff" opacity="0.38"/><circle cx="885.2" cy="49.9" r="0.55" fill="#dbe6ff" opacity="0.23"/><circle cx="511.4" cy="102.0" r="0.86" fill="#dbe6ff" opacity="0.31"/><circle cx="167.5" cy="133.7" r="0.55" fill="#dbe6ff" opacity="0.41"/><circle cx="631.2" cy="82.6" r="0.89" fill="#dbe6ff" opacity="0.65"/><circle cx="658.5" cy="34.6" r="1.27" fill="#dbe6ff" opacity="0.82"/><circle cx="1232.8" cy="24.1" r="1.05" fill="#dbe6ff" opacity="0.46"/><circle cx="1357.4" cy="228.5" r="1.36" fill="#dbe6ff" opacity="0.22"/><circle cx="304.0" cy="2.5" r="0.52" fill="#dbe6ff" opacity="0.50"/><circle cx="1022.1" cy="352.6" r="1.34" fill="#dbe6ff" opacity="0.44"/><circle cx="805.4" cy="135.8" r="1.13" fill="#dbe6ff" opacity="0.24"/><circle cx="313.2" cy="1.7" r="0.58" fill="#dbe6ff" opacity="0.69"/><circle cx="768.9" cy="362.0" r="1.21" fill="#dbe6ff" opacity="0.54"/><circle cx="396.2" cy="1.4" r="1.32" fill="#dbe6ff" opacity="0.38"/><circle cx="561.1" cy="24.1" r="0.97" fill="#dbe6ff" opacity="0.45"/><circle cx="1058.9" cy="73.2" r="0.89" fill="#dbe6ff" opacity="0.21"/><circle cx="15.2" cy="116.6" r="0.63" fill="#dbe6ff" opacity="0.55"/><circle cx="835.3" cy="91.8" r="1.25" fill="#dbe6ff" opacity="0.62"/><circle cx="633.1" cy="379.2" r="1.00" fill="#dbe6ff" opacity="0.30"/><circle cx="946.6" cy="35.2" r="1.08" fill="#dbe6ff" opacity="0.79"/><circle cx="853.1" cy="75.7" r="1.16" fill="#dbe6ff" opacity="0.59"/><circle cx="647.1" cy="146.6" r="1.13" fill="#dbe6ff" opacity="0.29"/><circle cx="1365.8" cy="1.0" r="1.44" fill="#dbe6ff" opacity="0.76"/><circle cx="630.2" cy="289.4" r="1.50" fill="#dbe6ff" opacity="0.51"/><circle cx="597.3" cy="0.0" r="0.49" fill="#dbe6ff" opacity="0.48"/><circle cx="1339.7" cy="231.4" r="1.48" fill="#dbe6ff" opacity="0.80"/><circle cx="1472.3" cy="201.0" r="1.55" fill="#dbe6ff" opacity="0.33"/><circle cx="1518.0" cy="8.9" r="1.38" fill="#dbe6ff" opacity="0.73"/><circle cx="907.8" cy="410.2" r="1.28" fill="#dbe6ff" opacity="0.34"/><circle cx="608.8" cy="385.6" r="1.18" fill="#dbe6ff" opacity="0.45"/><circle cx="1507.1" cy="223.7" r="0.57" fill="#dbe6ff" opacity="0.31"/><circle cx="1062.5" cy="118.0" r="0.62" fill="#dbe6ff" opacity="0.72"/><circle cx="481.2" cy="6.7" r="1.37" fill="#dbe6ff" opacity="0.66"/><circle cx="162.2" cy="63.6" r="0.77" fill="#dbe6ff" opacity="0.78"/><circle cx="401.7" cy="53.0" r="0.51" fill="#dbe6ff" opacity="0.26"/><circle cx="253.1" cy="255.5" r="1.27" fill="#dbe6ff" opacity="0.45"/><circle cx="979.9" cy="421.5" r="0.99" fill="#dbe6ff" opacity="0.72"/><circle cx="238.0" cy="1.7" r="0.47" fill="#dbe6ff" opacity="0.41"/><circle cx="70.1" cy="487.6" r="1.49" fill="#dbe6ff" opacity="0.33"/><circle cx="404.7" cy="66.5" r="1.35" fill="#dbe6ff" opacity="0.78"/><circle cx="1006.7" cy="4.0" r="0.90" fill="#dbe6ff" opacity="0.69"/><circle cx="857.0" cy="23.6" r="0.65" fill="#dbe6ff" opacity="0.81"/><circle cx="1296.0" cy="419.3" r="1.42" fill="#dbe6ff" opacity="0.79"/><circle cx="253.7" cy="47.6" r="1.28" fill="#dbe6ff" opacity="0.43"/><circle cx="41.7" cy="395.1" r="1.34" fill="#dbe6ff" opacity="0.60"/><circle cx="823.3" cy="330.2" r="1.24" fill="#dbe6ff" opacity="0.74"/><circle cx="1124.9" cy="34.0" r="0.50" fill="#dbe6ff" opacity="0.32"/><circle cx="1148.6" cy="474.0" r="0.86" fill="#dbe6ff" opacity="0.28"/><circle cx="1422.8" cy="139.2" r="0.61" fill="#dbe6ff" opacity="0.59"/><circle cx="816.6" cy="269.5" r="0.75" fill="#dbe6ff" opacity="0.47"/><circle cx="706.0" cy="20.9" r="0.40" fill="#dbe6ff" opacity="0.70"/><circle cx="1115.3" cy="3.3" r="0.76" fill="#dbe6ff" opacity="0.21"/><circle cx="587.1" cy="14.1" r="0.45" fill="#dbe6ff" opacity="0.71"/><circle cx="357.5" cy="496.4" r="0.61" fill="#dbe6ff" opacity="0.67"/><circle cx="578.9" cy="140.3" r="1.39" fill="#dbe6ff" opacity="0.58"/><circle cx="492.5" cy="72.9" r="1.33" fill="#dbe6ff" opacity="0.78"/><circle cx="132.3" cy="526.4" r="0.53" fill="#dbe6ff" opacity="0.82"/><circle cx="944.7" cy="277.0" r="1.27" fill="#dbe6ff" opacity="0.50"/><circle cx="995.4" cy="396.2" r="0.64" fill="#dbe6ff" opacity="0.60"/><circle cx="298.8" cy="225.5" r="1.5" fill="#ffffff" opacity="0.9"/><circle cx="1148.0" cy="53.7" r="1.5" fill="#ffffff" opacity="0.9"/><circle cx="87.9" cy="159.2" r="1.5" fill="#ffffff" opacity="0.9"/><circle cx="620.6" cy="51.9" r="1.5" fill="#ffffff" opacity="0.9"/><circle cx="1190.7" cy="283.8" r="1.5" fill="#ffffff" opacity="0.9"/><circle cx="1453.4" cy="217.9" r="1.5" fill="#ffffff" opacity="0.9"/><circle cx="737.2" cy="60.9" r="1.5" fill="#ffffff" opacity="0.9"/><circle cx="555.9" cy="221.1" r="1.5" fill="#ffffff" opacity="0.9"/>
<!-- atmospheric halo above the horizon -->
<ellipse cx="800" cy="595" rx="1050" ry="330" fill="url(#atmo)"/>
<!-- dark planet body cuts the halo to leave a crescent along the rim -->
<circle cx="800" cy="3495" r="2900" fill="#020410"/>
<!-- soft outer glow on the rim -->
<circle cx="800" cy="3495" r="2900" fill="none" stroke="#8fc0ff" stroke-width="16" opacity="0.55" filter="url(#softglow)"/>
<!-- crisp bright horizon line -->
<circle cx="800" cy="3495" r="2900" fill="none" stroke="#dcecff" stroke-width="2.5" opacity="0.95" filter="url(#glow)"/>
<circle cx="800" cy="3495" r="2900" fill="none" stroke="#ffffff" stroke-width="1.2" opacity="0.9"/>
</svg>